<?xml version="1.0" standalone="no"?>
<!DOCTYPE svg PUBLIC "-//W3C//DTD SVG 20010904//EN"
 "http://www.w3.org/TR/2001/REC-SVG-20010904/DTD/svg10.dtd">
<svg version="1.0" xmlns="http://www.w3.org/2000/svg"
 width="788.000000pt" height="145.000000pt" viewBox="0 0 788.000000 145.000000"
 preserveAspectRatio="xMidYMid meet">

<g transform="translate(0.000000,145.000000) scale(0.100000,-0.100000)"
fill="#000000" stroke="none">
<path d="M1117 1436 c-84 -30 -268 -193 -780 -690 -174 -169 -322 -317 -328
-327 -8 -16 -6 -19 9 -19 26 0 161 47 191 67 49 31 164 149 430 437 146 159
279 303 294 320 23 24 21 20 -7 -19 -108 -151 -267 -442 -306 -560 -13 -40
-18 -73 -14 -96 14 -75 57 -102 88 -54 72 110 294 346 546 580 247 230 261
239 116 75 -275 -309 -402 -480 -427 -574 -17 -62 -8 -170 17 -203 22 -29 72
-50 98 -40 12 5 13 13 5 39 -19 68 -11 151 21 214 41 81 164 245 350 464 183
216 270 327 270 345 0 27 -29 39 -64 27 -18 -7 -42 -12 -55 -12 -56 0 -148
-69 -439 -328 -105 -93 -209 -184 -232 -202 l-42 -33 56 111 c31 61 110 192
176 292 67 99 118 185 115 190 -8 14 -42 12 -88 -4z"/>
<path d="M4019 1425 c-14 -8 -100 -96 -190 -197 -295 -331 -742 -771 -842
-832 -26 -16 -21 -8 22 36 97 101 49 84 -87 -31 -148 -125 -158 -145 -99 -181
56 -35 92 -27 189 43 214 154 477 423 756 775 41 50 76 92 78 92 2 0 -15 -28
-37 -62 -47 -73 -96 -175 -148 -303 -32 -82 -35 -99 -36 -191 0 -118 13 -144
72 -144 52 0 67 12 134 110 63 93 93 125 65 72 -25 -49 -21 -97 11 -122 19
-15 35 -19 53 -15 43 11 108 54 175 116 l64 61 -6 -64 c-10 -109 19 -131 105
-81 46 27 46 27 -49 -87 -146 -176 -249 -310 -249 -325 0 -18 57 -65 79 -65
10 0 24 14 33 32 25 52 183 243 300 363 l108 110 25 -27 c14 -15 37 -31 51
-34 41 -10 114 4 180 35 l62 29 -97 -116 c-144 -172 -251 -311 -251 -327 0
-18 57 -65 79 -65 10 0 24 14 33 33 25 51 183 242 300 362 l108 110 25 -27
c14 -15 37 -31 51 -34 63 -16 189 26 279 93 l40 30 10 -40 c14 -55 52 -82 114
-81 61 1 123 36 205 116 37 35 69 58 82 58 13 0 34 4 47 9 24 9 24 9 29 -61 7
-94 32 -121 111 -120 61 0 91 13 185 78 35 24 65 44 67 44 3 0 5 -15 5 -33 0
-44 24 -75 68 -86 47 -13 96 -2 167 38 30 17 56 31 59 31 2 0 6 -9 9 -20 4
-15 14 -20 37 -20 36 0 100 42 245 160 47 39 88 70 91 70 3 0 -8 -17 -24 -38
-63 -79 -78 -143 -47 -201 17 -34 33 -41 86 -41 44 0 89 20 164 74 27 20 53
36 56 36 4 0 9 -13 12 -30 14 -66 111 -84 204 -36 95 48 462 342 477 382 14
38 -13 35 -68 -5 -136 -101 -452 -291 -483 -291 -7 0 -13 10 -13 23 0 38 55
120 118 175 33 29 64 62 67 75 3 12 11 32 18 45 14 30 -2 42 -57 42 -35 0 -46
-6 -91 -52 -27 -29 -71 -85 -97 -124 -51 -79 -109 -126 -209 -173 -71 -34 -85
-30 -75 21 7 34 44 84 159 210 37 42 67 80 67 87 0 13 -41 31 -69 31 -10 0
-47 -22 -82 -48 -155 -117 -219 -162 -219 -155 0 5 27 39 61 77 68 77 76 113
28 130 -40 14 -55 3 -106 -77 -41 -65 -57 -81 -132 -128 -113 -71 -273 -159
-288 -159 -45 0 30 142 120 227 64 61 90 109 66 124 -8 5 -32 9 -53 9 -35 0
-46 -7 -91 -53 -28 -28 -65 -75 -83 -103 -27 -42 -52 -62 -135 -112 -56 -34
-122 -68 -147 -77 -42 -15 -46 -15 -58 2 -15 21 -9 58 17 93 10 14 70 61 134
105 157 109 277 206 363 292 84 83 154 173 154 196 0 9 -11 29 -24 44 l-24 28
-54 -19 c-124 -43 -307 -164 -420 -279 -65 -65 -161 -190 -205 -264 -24 -41
-65 -73 -96 -73 -10 0 -4 19 20 66 42 83 46 155 11 178 -59 37 -193 -9 -298
-102 l-45 -39 -26 28 c-19 20 -37 29 -58 29 -63 0 -169 -56 -295 -157 -112
-90 -60 -26 132 166 173 173 175 175 161 200 -9 17 -25 27 -43 29 -26 3 -47
-15 -191 -162 l-163 -166 -12 31 c-42 101 -166 69 -374 -98 -112 -90 -60 -26
132 166 173 173 175 175 161 200 -9 17 -25 27 -43 29 -25 3 -50 -18 -215 -185
-165 -167 -198 -195 -290 -250 -58 -34 -107 -61 -109 -59 -9 9 32 68 117 170
50 59 91 114 91 122 0 19 -44 46 -64 38 -10 -4 -18 0 -22 10 -4 12 -19 16 -55
16 -80 0 -208 -74 -344 -199 -57 -53 -46 -39 92 119 188 216 397 410 511 476
39 22 42 37 5 30 -16 -3 -53 -8 -83 -11 -91 -10 -148 -34 -230 -96 -132 -100
-257 -248 -437 -521 -57 -87 -109 -158 -114 -158 -6 0 -7 15 -3 38 19 102 108
296 269 582 47 84 84 160 83 169 -4 21 -75 25 -109 6z m2354 -355 c-147 -146
-203 -190 -203 -164 0 23 251 265 327 315 68 45 37 7 -124 -151z m-2028 -216
c-81 -72 -233 -197 -265 -217 -89 -56 32 95 143 179 112 85 207 115 122 38z
m1485 36 c0 -17 -30 -73 -53 -97 -15 -17 -23 -20 -34 -12 -20 17 -17 26 28 74
41 44 59 55 59 35z m-880 -99 c0 -16 -108 -110 -184 -160 -42 -27 -102 -59
-132 -70 -102 -38 -99 -25 9 55 186 139 307 207 307 175z m490 0 c0 -16 -108
-110 -184 -160 -42 -27 -102 -59 -132 -70 -102 -38 -99 -25 9 55 186 139 307
207 307 175z m243 -55 l25 -44 -52 -50 c-53 -52 -110 -87 -126 -77 -10 6 10
70 36 112 30 48 75 103 84 103 5 0 19 -20 33 -44z"/>
<path d="M6664 1171 c-72 -44 -98 -123 -43 -129 34 -4 121 55 133 90 19 53
-31 75 -90 39z"/>
<path d="M7584 1171 c-72 -44 -98 -123 -43 -129 34 -4 121 55 133 90 19 53
-31 75 -90 39z"/>
<path d="M2308 993 c-10 -2 -21 -16 -24 -29 -5 -20 0 -33 24 -57 l31 -32 -90
-64 c-58 -41 -88 -69 -85 -77 6 -14 -21 -34 -121 -89 -105 -59 -70 3 92 165
58 57 105 113 105 122 0 15 -9 18 -45 18 -39 0 -50 -5 -76 -35 -32 -36 -242
-200 -303 -236 -20 -12 -39 -19 -42 -16 -15 15 14 49 102 122 53 44 100 88
106 99 13 24 -5 44 -25 27 -12 -9 -16 -8 -21 4 -7 19 -39 19 -74 1 -30 -16
-149 -136 -177 -179 -16 -25 -144 -111 -153 -103 -9 9 32 68 117 170 50 59 91
114 91 122 0 19 -44 46 -64 38 -10 -4 -18 0 -22 10 -4 12 -19 16 -54 16 -98 0
-287 -125 -406 -268 -68 -82 -94 -130 -94 -176 0 -44 41 -80 80 -71 43 11 108
54 175 116 l64 61 -6 -64 c-10 -114 19 -132 117 -73 67 41 70 41 70 15 0 -12
10 -25 25 -32 36 -16 91 12 178 91 38 34 71 60 74 58 2 -3 -3 -19 -11 -36 -21
-39 -21 -105 0 -126 12 -11 26 -14 52 -9 78 13 182 81 386 253 65 55 115 90
123 86 8 -3 24 -5 35 -5 15 0 -1 -20 -60 -77 -64 -62 -83 -87 -92 -121 -14
-56 -5 -96 27 -122 45 -35 112 -22 220 45 l42 25 13 -27 c19 -40 78 -66 128
-58 50 8 143 70 199 130 28 30 50 45 66 45 62 0 175 62 290 160 67 57 82 77
67 92 -7 7 -31 -5 -77 -39 -72 -54 -213 -133 -237 -133 -11 0 -6 17 19 66 24
48 33 80 33 115 0 62 -22 78 -97 74 -99 -6 -235 -102 -331 -233 -40 -54 -62
-74 -118 -103 -90 -48 -114 -55 -114 -34 0 25 81 106 171 171 135 97 125 86
104 118 -28 42 -45 47 -113 30 l-62 -16 -88 41 c-85 39 -106 44 -144 34z
m-743 -139 c-81 -72 -233 -197 -265 -217 -89 -56 32 95 143 179 112 85 207
115 122 38z m1455 36 c0 -17 -30 -73 -53 -97 -15 -17 -23 -20 -34 -12 -20 17
-17 26 28 74 41 44 59 55 59 35z m-142 -164 l20 -34 -52 -50 c-53 -52 -110
-87 -126 -77 -20 12 24 100 73 147 28 26 53 48 58 48 4 0 16 -15 27 -34z"/>
</g>
</svg>
